HIERARCHY
ROOT Hips
{
    OFFSET 0.000000 0.000000 0.000000
    CHANNELS 6 Xposition Yposition Zposition Zrotation Xrotation Yrotation
    JOINT Spine
    {
        OFFSET -0.000000 7.790525 0.000000
        CHANNELS 3 Zrotation Xrotation Yrotation
        JOINT Spine1
        {
            OFFSET -0.000000 20.430923 0.000000
            CHANNELS 3 Zrotation Xrotation Yrotation
            JOINT Neck
            {
                OFFSET -0.000000 22.331051 0.000000
                CHANNELS 3 Zrotation Xrotation Yrotation
                JOINT Head
                {
                    OFFSET -0.000000 14.725992 1.900128
                    CHANNELS 3 Zrotation Xrotation Yrotation
                    End Site
                    {
                        OFFSET -0.000000 19.001280 0.000000
                    }
                }
            }
            JOINT LeftShoulder
            {
                OFFSET 3.812537 19.294388 -0.177115
                CHANNELS 3 Zrotation Xrotation Yrotation
                JOINT LeftArm
                {
                    OFFSET 9.162892 0.000000 0.000000
                    CHANNELS 3 Zrotation Xrotation Yrotation
                    JOINT LeftForeArm
                    {
                        OFFSET 30.063545 0.000000 0.000000
                        CHANNELS 3 Zrotation Xrotation Yrotation
                        JOINT LeftHand
                        {
                            OFFSET 28.325521 0.000000 0.000000
                            CHANNELS 3 Zrotation Xrotation Yrotation
                            End Site
                            {
                                OFFSET 14.250961 0.000000 0.000000
                            }
                        }
                    }
                }
            }
            JOINT RightShoulder
            {
                OFFSET -3.786349 19.294388 -0.177115
                CHANNELS 3 Zrotation Xrotation Yrotation
                JOINT RightArm
                {
                    OFFSET -9.162892 0.000000 0.000000
                    CHANNELS 3 Zrotation Xrotation Yrotation
                    JOINT RightForeArm
                    {
                        OFFSET -30.063545 0.000000 0.000000
                        CHANNELS 3 Zrotation Xrotation Yrotation
                        JOINT RightHand
                        {
                            OFFSET -28.325521 0.000000 0.000000
                            CHANNELS 3 Zrotation Xrotation Yrotation
                            End Site
                            {
                                OFFSET -14.250961 0.000000 0.000000
                            }
                        }
                    }
                }
            }
        }
    }
    JOINT LeftUpLeg
    {
        OFFSET 9.500640 0.000000 0.000000
        CHANNELS 3 Zrotation Xrotation Yrotation
        JOINT LeftLeg
        {
            OFFSET -0.000000 -41.640518 0.000000
            CHANNELS 3 Zrotation Xrotation Yrotation
            JOINT LeftFoot
            {
                OFFSET -0.000000 -37.182968 0.000000
                CHANNELS 3 Zrotation Xrotation Yrotation
                JOINT LeftToeBase
                {
                    OFFSET -0.000000 -6.175416 14.250961
                    CHANNELS 3 Zrotation Xrotation Yrotation
                    End Site
                    {
                        OFFSET -0.000000 0.000000 3.800256
                    }
                }
            }
        }
    }
    JOINT RightUpLeg
    {
        OFFSET -9.500640 0.000000 0.000000
        CHANNELS 3 Zrotation Xrotation Yrotation
        JOINT RightLeg
        {
            OFFSET -0.000000 -41.640518 0.000000
            CHANNELS 3 Zrotation Xrotation Yrotation
            JOINT RightFoot
            {
                OFFSET -0.000000 -37.182968 0.000000
                CHANNELS 3 Zrotation Xrotation Yrotation
                JOINT RightToeBase
                {
                    OFFSET -0.000000 -6.175416 14.250961
                    CHANNELS 3 Zrotation Xrotation Yrotation
                    End Site
                    {
                        OFFSET -0.000000 0.000000 3.800256
                    }
                }
            }
        }
    }
}
MOTION
Frames:    10
Frame Time:    0.010000
34.380741    89.375839    76.931564    -0.588617    -0.416615    0.376775    -2.100174    -10.663630    0.258403    2.484075    4.863184    0.046000    -0.540438    14.193089    1.273227    -3.654085    0.115588    1.651470    -3.573932    6.500956    1.714667    -66.026711    66.303726    -12.229411    12.989293    -24.815401    -1.669172    -26.480093    -23.569695    -4.993608    -0.461156    8.381667    -5.814827    -88.624405    78.687126    162.966080    -24.728619    -36.840046    -4.930961    30.280573    -33.942310    17.001625    -0.441927    3.823938    2.501003    -1.243874    2.812525    1.897401    2.008317    -7.976934    14.280219    0.000000    0.000000    0.000000    -3.465181    2.775143    0.623389    2.434145    4.453794    2.002074    -1.107884    -7.105626    -6.858321    0.000000    0.000000    0.000000    
34.381378    89.376701    76.931198    -0.594367    -0.432194    0.379427    -2.111094    -10.659935    0.265949    2.517494    4.884460    0.046864    -0.547512    14.188460    1.259083    -3.666730    0.110621    1.636565    -3.594798    6.512794    1.704263    -65.953140    66.279282    -12.297829    12.961149    -24.811045    -1.682224    -26.486910    -23.564217    -4.992834    -0.482321    8.077251    -5.634631    -90.347397    78.977448    164.693222    -24.768776    -36.809650    -4.872935    30.082621    -33.956757    16.875931    -0.438736    3.837710    2.495742    -1.235184    2.810952    1.883561    2.024302    -7.951923    14.271548    0.000000    0.000000    0.000000    -3.460918    2.793201    0.628384    2.439649    4.445303    1.996026    -1.114541    -7.089750    -6.862772    0.000000    0.000000    0.000000    
34.381847    89.376175    76.927818    -0.588767    -0.424442    0.370756    -2.136458    -10.659745    0.276081    2.542365    4.874898    0.050247    -0.553530    14.171257    1.254431    -3.648982    0.137269    1.628816    -3.597244    6.506216    1.679363    -66.022293    66.185562    -12.219214    12.918853    -24.787304    -1.735269    -26.479025    -23.540400    -4.970743    -0.472492    7.935319    -5.574487    -91.004990    79.200371    165.313065    -24.758013    -36.735344    -4.752916    30.318140    -33.809795    16.947561    -0.440559    3.822934    2.484734    -1.245290    2.823359    1.893571    1.978544    -7.981008    14.320900    0.000000    0.000000    0.000000    -3.467056    2.775318    0.635714    2.438981    4.458371    1.992176    -1.445019    -6.965679    -6.758584    0.000000    0.000000    0.000000    
34.381310    89.374344    76.928925    -0.601030    -0.441581    0.366046    -2.100183    -10.664188    0.269101    2.503130    4.906463    0.047852    -0.560401    14.159557    1.263645    -3.635419    0.146466    1.635168    -3.584303    6.504361    1.685092    -66.002396    66.218369    -12.239160    12.949444    -24.806414    -1.701752    -26.616009    -23.539515    -5.051173    -0.479493    7.933459    -5.564493    -91.102005    79.076126    165.451599    -24.800400    -36.820667    -4.858657    30.318913    -33.928398    16.906584    -0.428508    3.838305    2.488266    -1.249254    2.833831    1.905581    2.009627    -7.997941    14.313803    0.000000    0.000000    0.000000    -3.452334    2.790787    0.640801    2.435616    4.456842    1.959944    -1.153023    -7.075302    -6.801758    0.000000    0.000000    0.000000    
34.383835    89.374741    76.928200    -0.592014    -0.447681    0.367022    -2.106186    -10.663065    0.262493    2.494341    4.901265    0.046274    -0.572311    14.191032    1.259650    -3.615963    0.124957    1.624558    -3.585651    6.521716    1.661042    -65.997887    66.209419    -12.247317    12.955123    -24.835217    -1.673983    -26.694487    -23.561621    -5.080815    -0.497763    7.930395    -5.548739    -90.995155    79.158661    165.361755    -24.757494    -36.779053    -4.811460    30.236519    -33.883617    16.917082    -0.434877    3.842568    2.476381    -1.254584    2.835449    1.879408    2.030833    -7.978240    14.328251    0.000000    0.000000    0.000000    -3.463924    2.793742    0.634356    2.438973    4.457607    2.035984    -1.149002    -7.082653    -6.881926    0.000000    0.000000    0.000000    
34.385098    89.375237    76.927017    -0.586150    -0.450272    0.359768    -2.082832    -10.674662    0.244124    2.439940    4.919752    0.041469    -0.524800    14.202519    1.234486    -3.684061    0.141646    1.620212    -3.570082    6.505187    1.668458    -66.041901    66.202469    -12.189551    12.991147    -24.893847    -1.652320    -26.879353    -23.596869    -5.161922    -0.481695    8.448072    -5.910412    -88.008812    78.515724    162.402466    -24.688141    -36.899261    -4.956704    30.150576    -34.051907    16.880108    -0.441631    3.843138    2.482914    -1.257411    2.842524    1.908763    1.992618    -7.994374    14.324152    0.000000    0.000000    0.000000    -3.471451    2.791019    0.642277    2.439098    4.467920    2.050906    -1.152489    -7.087398    -6.892098    0.000000    0.000000    0.000000    
34.386166    89.373543    76.928558    -0.593194    -0.465672    0.362450    -2.123275    -10.587152    0.357021    2.538699    4.812212    0.077720    -0.510100    14.183164    1.136768    -3.701339    0.198906    1.527191    -3.589603    6.567438    1.541615    -65.966095    66.187729    -12.273822    12.964422    -24.906885    -1.668922    -27.008976    -23.586374    -5.237330    -0.479615    7.845323    -5.737068    -91.546555    79.247353    165.877960    -24.726734    -36.771637    -4.693016    30.195618    -33.887627    16.790565    -0.482134    3.831451    2.503805    -1.254204    2.849440    1.877708    1.009714    -7.973817    14.677720    0.000000    0.000000    0.000000    -3.463622    2.804406    0.637447    2.431942    4.479720    1.996655    -1.158618    -7.086475    -6.813212    0.000000    0.000000    0.000000    
34.387554    89.371529    76.924789    -0.609339    -0.504862    0.315777    -2.028781    -10.623735    0.262479    2.398958    4.963508    0.046207    -0.569747    14.138922    1.273122    -3.606237    0.125203    1.638140    -3.555239    6.464956    1.697392    -65.955040    65.645355    -12.155448    12.447840    -24.690401    -2.068247    -26.647411    -23.366676    -5.163960    -0.465360    8.406267    -5.923777    -87.647430    78.776588    161.978500    -24.577234    -36.817005    -4.656192    30.180508    -33.926434    16.782888    -0.441899    3.843692    2.561313    -1.324507    2.924091    1.771343    0.760879    -8.039088    14.862529    0.000000    0.000000    0.000000    -3.450231    2.825049    0.708192    2.436903    4.480973    1.960020    0.901460    -6.898391    -7.138600    0.000000    0.000000    0.000000    
34.390987    89.371170    76.926849    -0.602433    -0.524189    0.314204    -2.014693    -10.638144    0.250762    2.368394    5.005343    0.042393    -0.510628    14.190601    1.225879    -3.720985    0.078202    1.617802    -3.561162    6.488214    1.675838    -65.883766    65.630783    -12.222919    12.467100    -24.774792    -2.023753    -26.869579    -23.417027    -5.297484    -0.462191    8.387141    -5.902252    -87.611412    78.795204    161.952042    -24.577570    -36.821968    -4.662754    30.175680    -33.936184    16.770626    -0.452653    3.873775    2.443515    -1.333300    2.900744    1.895220    0.774545    -8.029376    14.862851    0.000000    0.000000    0.000000    -3.458497    2.836299    0.675323    2.433005    4.501387    1.988906    0.809520    -6.932649    -7.120641    0.000000    0.000000    0.000000    
34.391029    89.370689    76.923492    -0.608037    -0.530081    0.303947    -2.003211    -10.660457    0.245877    2.365336    5.078804    0.039310    -0.541172    14.137893    1.233083    -3.696815    0.081400    1.614591    -3.574224    6.468258    1.690288    -65.818382    65.615585    -12.278438    12.463840    -24.849264    -2.024889    -27.047760    -23.464407    -5.387188    -0.501840    8.332889    -5.894058    -87.376160    78.915550    161.749084    -24.490150    -36.782021    -4.558223    29.981731    -33.915092    16.696695    -0.445139    3.853133    2.562431    -1.335111    2.964715    1.780951    0.785840    -8.067648    14.863581    0.000000    0.000000    0.000000    -3.453934    2.835973    0.727712    2.436047    4.502876    1.962305    0.939840    -6.926908    -7.159340    0.000000    0.000000    0.000000    
